<svg width="313" height="76" viewBox="0 0 313 76" fill="none" xmlns="http://www.w3.org/2000/svg">
<path d="M37.177 0.822998C16.6451 0.822998 0 17.4645 0 38C0 58.5319 16.6451 75.177 37.177 75.177C57.7089 75.177 74.3541 58.5319 74.3541 38C74.3541 17.4645 57.7089 0.822998 37.177 0.822998Z" fill="black"/>
<path d="M41.0889 14.3097V31.5659H35.1734C35.1343 31.5659 35.1485 32.4044 35.1485 14.3097C35.1485 12.6754 36.4702 11.3431 38.1187 11.3431C39.7566 11.3431 41.0889 12.6754 41.0889 14.3097Z" fill="white"/>
<path d="M53.6022 16.7612L48.9622 34.0778C47.8821 33.0012 46.5142 31.5659 43.4801 31.5659L47.8643 15.2263C48.2907 13.6453 49.9214 12.7038 51.5024 13.1266C53.0835 13.5494 54.0321 15.173 53.6022 16.7612Z" fill="white"/>
<path d="M34.687 33.3392C34.8096 33.2779 34.7519 33.2923 34.6509 33.3681C34.6617 33.3609 34.687 33.3392 34.687 33.3392Z" fill="white"/>
<path d="M41.9021 33.1966C42.0584 33.1966 42.1508 33.154 42.1615 33.154C42.3142 33.2144 42.7725 33.1966 41.9021 33.1966Z" fill="white"/>
<path d="M52.0207 48.7686C52.0207 55.9667 46.1621 61.8218 38.9569 61.8218H33.0698C25.8646 61.8218 20.006 55.9667 20.006 48.7686V42.4126C22.7346 44.5159 26.7351 42.5689 26.7351 39.1049V31.5409C26.7351 30.5354 26.4011 29.9527 26.4011 29.9066L23.065 17.468C22.8589 16.7006 22.9655 15.9012 23.3599 15.2155C24.6815 12.9381 28.1207 13.3787 28.8028 15.9296L33.2403 32.4788C32.8744 32.9229 32.6754 33.4772 32.6754 34.0634C32.6754 37.7548 35.6812 40.7605 39.3797 40.7605H43.1208C43.3304 41.1194 43.4726 41.5066 43.5472 41.8974C37.2977 43.1018 32.6754 48.6336 32.6754 55.0714C32.6754 55.5226 33.0414 55.8886 33.489 55.8886C33.9403 55.8886 34.3062 55.5226 34.3062 55.0714C34.3062 49.1843 38.7011 44.1606 44.5349 43.3861C44.9363 43.3292 45.2419 42.9846 45.2419 42.576C45.2419 40.8707 44.3359 39.4033 43.9273 39.2186C43.6822 39.0942 43.8953 39.1298 39.3797 39.1298C36.58 39.1298 34.3062 36.8559 34.3062 34.0634C34.3062 33.8289 34.395 33.6122 34.5585 33.4488C34.9137 33.0935 34.53 33.1965 43.668 33.1965C46.2758 33.1965 47.3523 34.8415 48.8267 36.2448C49.6723 37.0904 50.5321 37.9289 51.2497 39.581C52.2232 41.8051 52.0207 42.91 52.0207 48.7686Z" fill="white"/>
<path d="M25.1043 31.541V39.1051C25.1043 40.5084 23.9603 41.6525 22.5534 41.6525C21.15 41.6525 20.006 40.5084 20.006 39.1051V31.541C20.006 30.1341 21.15 28.9937 22.5534 28.9937C23.971 28.9937 25.1043 30.1483 25.1043 31.541Z" fill="white"/>
<path d="M87.0813 44.2468C93.0643 44.2468 97.1749 40.6371 97.1749 33.8761V10.7825H90.3215V32.597C90.3215 36.4554 88.9536 38.0791 86.257 38.0791C84.4522 38.0791 82.8782 37.4609 81.2546 36.3204L78.3555 41.9623C81.4145 43.5611 84.5232 44.2468 87.0813 44.2468Z" fill="#FF9933"/>
<path d="M123.573 38.0791V28.3266C123.573 21.2457 118.414 19.853 113.706 19.853C107.471 19.853 103.908 22.0665 102.927 26.9303L108.75 27.9819C109.162 25.3315 110.967 24.3971 113.341 24.3971C115.192 24.3971 117.295 25.0366 117.295 27.3424C117.295 28.3017 116.698 28.8737 115.032 29.261L111.173 30.1314C106.26 31.2044 102.629 32.8494 102.629 37.7132C102.629 42.6019 106.238 44.2469 109.937 44.2469C112.68 44.2469 115.717 43.3551 117.476 41.2305L118.002 43.7886H124.145V43.1491C123.733 41.8239 123.573 40.7047 123.573 38.0791ZM111.902 40.1114C110.235 40.1114 108.91 39.2658 108.91 37.4396C108.91 35.6561 109.983 34.7892 112.061 34.2883L117.636 32.7108C117.636 37.7807 115.053 40.1114 111.902 40.1114Z" fill="#FF9933"/>
<path d="M133.322 16.7904C135.354 16.7904 137.092 15.0992 137.092 12.9995C137.092 10.9211 135.354 9.22992 133.322 9.22992C131.244 9.22992 129.506 10.9211 129.506 12.9995C129.506 15.0992 131.244 16.7904 133.322 16.7904ZM129.965 43.7885H136.587V20.3077H129.965V43.7885Z" fill="#FF9933"/>
<path d="M144.259 43.7885H151.113V30.2202H165.068V43.7885H171.922V10.7825H165.068V24.2585H151.113V10.7825H144.259V43.7885Z" fill="#FF9933"/>
<path d="M190.526 44.247C198.065 44.247 203.409 39.6993 203.409 32.0252C203.409 24.3972 198.087 19.8282 190.526 19.8282C183.012 19.8282 177.669 24.3972 177.669 32.0252C177.669 39.6993 183.058 44.247 190.526 44.247ZM190.459 39.0136C186.782 39.0136 184.202 36.2282 184.202 32.0252C184.202 27.8222 186.782 25.0367 190.459 25.0367C194.275 25.0367 196.879 27.8222 196.879 32.0252C196.879 36.2282 194.275 39.0136 190.459 39.0136Z" fill="#FF9933"/>
<path d="M220.147 44.2469C227.341 44.2469 232.457 40.6586 232.457 34.3771C232.457 27.6871 226.584 25.7899 221.586 24.2835C217.837 23.1643 214.594 22.3863 214.594 19.6221C214.594 17.089 216.946 15.9236 219.71 15.9236C222.818 15.9236 225.032 17.3625 226.062 20.5352L232.273 19.0075C230.947 12.6799 225.103 10.3279 219.301 10.3279C212.675 10.3279 207.651 13.799 207.651 19.8744C207.651 26.0421 212.835 27.8008 217.677 29.3072C221.699 30.54 225.352 31.4993 225.377 34.7431C225.398 37.4148 223.184 38.6476 220.26 38.6476C216.811 38.6476 214.253 36.889 213.293 33.0981L206.507 34.6507C207.513 40.8433 213.041 44.2469 220.147 44.2469Z" fill="black"/>
<path d="M248.529 44.222C254.355 44.222 258.924 41.1168 260.065 35.5673L253.99 34.9029C253.258 37.6883 251.225 39.0136 248.461 39.0136C244.923 39.0136 242.524 36.2068 242.524 32.0251C242.524 27.8221 244.923 25.0366 248.461 25.0366C251.225 25.0366 253.258 26.337 253.99 29.1473L260.065 28.4865C258.924 22.9333 254.469 19.853 248.529 19.853C241.153 19.853 235.945 24.7169 235.945 32.0251C235.945 39.312 241.153 44.222 248.529 44.222Z" fill="black"/>
<path d="M283.994 38.0791V28.3266C283.994 21.2457 278.835 19.853 274.128 19.853C267.893 19.853 264.329 22.0665 263.349 26.9303L269.172 27.9819C269.584 25.3315 271.389 24.3971 273.762 24.3971C275.613 24.3971 277.716 25.0366 277.716 27.3424C277.716 28.3017 277.119 28.8737 275.453 29.261L271.595 30.1314C266.681 31.2044 263.05 32.8494 263.05 37.7132C263.05 42.6019 266.66 44.2469 270.358 44.2469C273.101 44.2469 276.139 43.3551 277.898 41.2305L278.423 43.7886H284.566V43.1491C284.154 41.8239 283.994 40.7047 283.994 38.0791ZM272.323 40.1114C270.657 40.1114 269.332 39.2658 269.332 37.4396C269.332 35.6561 270.405 34.7892 272.483 34.2883L278.057 32.7108C278.057 37.7807 275.474 40.1114 272.323 40.1114Z" fill="black"/>
<path d="M304.249 19.853C301.144 19.853 298.608 20.9722 296.963 22.912V20.3078H290.386V43.7886H296.963V30.8384C297.009 26.4969 299.478 25.129 302.196 25.129C304.456 25.129 306.399 26.2695 306.399 29.3995V43.7886H313V27.9819C313 22.7735 309.891 19.853 304.249 19.853Z" fill="black"/>
<path d="M97.0593 54.092H88.3761V56.0532H91.627V67.2198H93.8191V56.0532H97.0593V54.092Z" fill="#545454"/>
<path d="M104.023 57.7834C102.751 57.7834 101.738 58.2808 101.113 59.1193V53.0794H98.9955V67.2198H101.113V61.8976C101.124 60.1318 102.182 59.5136 103.277 59.5136C104.282 59.5136 105.117 60.0501 105.117 61.5494V67.2198H107.252V61.1799C107.252 58.9274 105.984 57.7834 104.023 57.7834Z" fill="#545454"/>
<path d="M118.462 62.4342C118.452 59.265 116.576 57.7764 114.025 57.7764C111.293 57.7764 109.31 59.5528 109.31 62.5905C109.31 65.6282 111.246 67.4046 114.089 67.4046C116.05 67.4046 117.652 66.3529 118.295 64.5694L116.362 64.239C115.94 65.1663 115.101 65.6921 114.071 65.6921C112.664 65.6921 111.474 64.8075 111.392 62.9671H118.434L118.462 62.4342ZM114.035 59.3503C115.258 59.3503 116.171 60.0111 116.334 61.3825H111.484C111.779 59.9756 112.735 59.3503 114.035 59.3503Z" fill="#545454"/>
<path d="M132.624 60.3237C133.672 59.8192 134.215 58.835 134.215 57.6271C134.215 55.4847 132.695 54.092 130.101 54.092H125.987V67.2198H131.241C133.771 67.2198 135.164 65.7453 135.164 63.603C135.164 61.7519 134.141 60.7287 132.624 60.3237ZM130.108 55.9537C131.455 55.9537 132.172 56.7353 132.172 57.7656C132.172 58.8066 131.508 59.6451 130.328 59.6451H128.111V55.9537H130.108ZM130.847 65.3048H128.111V61.3824H130.762C132.318 61.3824 133.029 62.2849 133.029 63.3614C133.029 64.3952 132.336 65.3048 130.847 65.3048Z" fill="#545454"/>
<path d="M137.541 67.2198H139.676V53.0794H137.541V67.2198Z" fill="#545454"/>
<path d="M146.783 67.4046C149.601 67.4046 151.661 65.582 151.661 62.5798C151.661 59.6061 149.608 57.7764 146.783 57.7764C143.966 57.7764 141.912 59.6061 141.912 62.5798C141.912 65.582 143.984 67.4046 146.783 67.4046ZM146.765 65.6815C145.181 65.6815 144.023 64.4593 144.023 62.5798C144.023 60.711 145.181 59.4888 146.765 59.4888C148.375 59.4888 149.554 60.711 149.554 62.5798C149.554 64.4593 148.375 65.6815 146.765 65.6815Z" fill="#545454"/>
<path d="M157.908 67.3869C160.071 67.3869 161.791 66.2074 162.299 64.1467L160.327 63.898C159.968 65.074 159.059 65.6744 157.89 65.6744C156.344 65.6744 155.229 64.4487 155.229 62.5799C155.229 60.7111 156.344 59.4889 157.89 59.4889C159.059 59.4889 159.968 60.0965 160.327 61.2725L162.299 61.0167C161.791 58.9525 160.107 57.7836 157.908 57.7836C155.129 57.7836 153.111 59.6986 153.111 62.5799C153.111 65.4719 155.129 67.3869 157.908 67.3869Z" fill="#545454"/>
<path d="M168.949 62.2209L172.651 57.961H170.211L167.137 61.6134H166.555V53.0794H164.419V67.2198H166.555V63.1411H167.191L170.431 67.2198H173.064L168.949 62.2209Z" fill="#545454"/>
<path d="M178.657 67.3869C180.821 67.3869 182.54 66.2074 183.048 64.1467L181.077 63.898C180.718 65.074 179.808 65.6744 178.639 65.6744C177.094 65.6744 175.978 64.4487 175.978 62.5799C175.978 60.7111 177.094 59.4889 178.639 59.4889C179.808 59.4889 180.718 60.0965 181.077 61.2725L183.048 61.0167C182.54 58.9525 180.856 57.7836 178.657 57.7836C175.879 57.7836 173.861 59.6986 173.861 62.5799C173.861 65.4719 175.879 67.3869 178.657 67.3869Z" fill="#545454"/>
<path d="M190.196 57.7834C188.925 57.7834 187.912 58.2808 187.287 59.1193V53.0794H185.169V67.2198H187.287V61.8976C187.297 60.1318 188.356 59.5136 189.45 59.5136C190.456 59.5136 191.291 60.0501 191.291 61.5494V67.2198H193.426V61.1799C193.426 58.9274 192.158 57.7834 190.196 57.7834Z" fill="#545454"/>
<path d="M198.411 67.3941C199.526 67.3941 200.713 67.0068 201.431 65.9942H201.534C201.743 66.8505 202.369 67.22 203.41 67.22H204.415V65.774H204.266C203.623 65.774 203.392 65.5253 203.392 64.6513V61.0629C203.392 58.4551 201.523 57.7943 199.672 57.7943C197.38 57.7943 196.002 58.6789 195.679 60.5939L197.583 60.9421C197.722 59.7554 198.542 59.3113 199.544 59.3113C200.464 59.3113 201.356 59.6915 201.356 60.8319C201.356 61.2725 201.111 61.5496 200.503 61.6704L199.104 61.9262C197.171 62.2779 195.558 62.8926 195.558 64.8715C195.558 66.6764 196.911 67.3941 198.411 67.3941ZM198.908 65.7278C198.183 65.7278 197.611 65.4258 197.611 64.6974C197.611 63.9975 198.155 63.6671 199.128 63.4824L201.495 62.9565C201.495 64.6513 200.365 65.7278 198.908 65.7278Z" fill="#545454"/>
<path d="M207.549 56.1918C208.249 56.1918 208.846 55.602 208.846 54.895C208.846 54.1773 208.249 53.5947 207.549 53.5947C206.831 53.5947 206.242 54.1773 206.242 54.895C206.242 55.602 206.831 56.1918 207.549 56.1918ZM206.462 67.2198H208.59V57.9611H206.462V67.2198Z" fill="#545454"/>
<path d="M216.511 57.7836C215.307 57.7836 214.323 58.2525 213.704 59.0555V57.9612H211.587V67.2199H213.704V61.8978C213.715 60.1782 214.717 59.5138 215.886 59.5138C216.863 59.5138 217.708 60.0503 217.708 61.4466V67.2199H219.844V60.9882C219.844 58.9276 218.582 57.7836 216.511 57.7836Z" fill="#545454"/>
<path d="M235.258 56.0532V54.092H227.932V67.2198H235.258V65.2515H230.16V61.6311H234.668V59.6913H230.16V56.0532H235.258Z" fill="#545454"/>
<path d="M236.591 67.2199H239.223L241.568 64.0152L243.899 67.2199H246.521L242.823 62.5905L246.521 57.9612H243.906L241.561 61.1907L239.223 57.9612H236.591L240.272 62.5799L236.591 67.2199Z" fill="#545454"/>
<path d="M253.385 57.7836C252.031 57.7836 250.852 58.4089 250.301 59.4676L250.244 57.9612H248.219V71.86H250.336V65.813C250.898 66.8149 252.06 67.4331 253.385 67.4331C255.787 67.4331 257.766 65.6105 257.766 62.5977C257.766 59.6062 255.787 57.7836 253.385 57.7836ZM252.923 65.6354C251.377 65.6354 250.173 64.3848 250.173 62.5977C250.173 60.8319 251.377 59.5813 252.923 59.5813C254.426 59.5813 255.648 60.7111 255.648 62.5977C255.648 64.4949 254.426 65.6354 252.923 65.6354Z" fill="#545454"/>
<path d="M260.025 67.2198H262.16V53.0794H260.025V67.2198Z" fill="#545454"/>
<path d="M269.266 67.4046C272.083 67.4046 274.144 65.582 274.144 62.5798C274.144 59.6061 272.09 57.7764 269.266 57.7764C266.449 57.7764 264.395 59.6061 264.395 62.5798C264.395 65.582 266.466 67.4046 269.266 67.4046ZM269.248 65.6815C267.664 65.6815 266.505 64.4593 266.505 62.5798C266.505 60.711 267.664 59.4888 269.248 59.4888C270.858 59.4888 272.037 60.711 272.037 62.5798C272.037 64.4593 270.858 65.6815 269.248 65.6815Z" fill="#545454"/>
<path d="M278.465 59.4319L278.401 57.9611H276.376V67.2198H278.504V62.4981C278.504 60.48 279.517 59.7908 281.403 59.7908V57.858C280.096 57.8687 278.945 58.5579 278.465 59.4319Z" fill="#545454"/>
<path d="M291.509 62.4342C291.498 59.265 289.622 57.7764 287.071 57.7764C284.339 57.7764 282.357 59.5528 282.357 62.5905C282.357 65.6282 284.293 67.4046 287.135 67.4046C289.096 67.4046 290.699 66.3529 291.342 64.5694L289.409 64.239C288.986 65.1663 288.148 65.6921 287.117 65.6921C285.71 65.6921 284.52 64.8075 284.439 62.9671H291.48L291.509 62.4342ZM287.082 59.3503C288.304 59.3503 289.217 60.0111 289.381 61.3825H284.531C284.826 59.9756 285.782 59.3503 287.082 59.3503Z" fill="#545454"/>
<path d="M295.847 59.4319L295.783 57.9611H293.758V67.2198H295.886V62.4981C295.886 60.48 296.898 59.7908 298.785 59.7908V57.858C297.477 57.8687 296.326 58.5579 295.847 59.4319Z" fill="#545454"/>
</svg>
